<svg width="144" height="26" viewBox="0 0 144 26" fill="none" xmlns="http://www.w3.org/2000/svg">
<path d="M24.5765 25.3848H18.0999L16.4167 19.9564H8.14718L6.42741 25.3848H0.097168L8.58628 1.33942H16.124L24.5765 25.3848ZM9.3181 15.6938H15.2458L12.282 5.96634L9.3181 15.6938Z" fill="white"/>
<path d="M33.6788 20.5393H45.7904V25.3848H27.3852V1.33942H33.6788V20.5393Z" fill="white"/>
<path d="M55.6906 20.5393H67.8022V25.3848H49.3969V1.33942H55.6906V20.5393Z" fill="white"/>
<path d="M81.4535 0.975098C83.8929 0.975098 85.9908 1.47301 87.7471 2.46883C89.5279 3.44036 90.894 4.84908 91.8453 6.69499C92.7967 8.5409 93.2724 10.7633 93.2724 13.3621C93.2724 15.961 92.7967 18.1834 91.8453 20.0293C90.894 21.8752 89.5279 23.296 87.7471 24.2919C85.9908 25.2634 83.8929 25.7492 81.4535 25.7492C79.0141 25.7492 76.904 25.2634 75.1233 24.2919C73.3425 23.296 71.9764 21.8752 71.0251 20.0293C70.0737 18.1834 69.598 15.961 69.598 13.3621C69.598 10.7633 70.0737 8.5409 71.0251 6.69499C71.9764 4.84908 73.3425 3.44036 75.1233 2.46883C76.904 1.47301 79.0141 0.975098 81.4535 0.975098ZM81.4535 5.89348C80.2826 5.89348 79.2946 6.17279 78.4896 6.73142C77.6846 7.29005 77.0748 8.128 76.6601 9.24526C76.2454 10.3382 76.038 11.7105 76.038 13.3621C76.038 14.9894 76.2454 16.3617 76.6601 17.479C77.0748 18.5963 77.6846 19.4342 78.4896 19.9928C79.2946 20.5515 80.2826 20.8308 81.4535 20.8308C82.6244 20.8308 83.6002 20.5515 84.3808 19.9928C85.1858 19.4342 85.7956 18.5963 86.2103 17.479C86.625 16.3617 86.8324 14.9894 86.8324 13.3621C86.8324 11.7105 86.625 10.3382 86.2103 9.24526C85.7956 8.128 85.1858 7.29005 84.3808 6.73142C83.6002 6.17279 82.6244 5.89348 81.4535 5.89348Z" fill="white"/>
<path d="M119.059 1.33942L110.497 25.3848H103.105L94.5065 1.33942H101.129L105.557 15.876L106.874 20.6122L108.155 15.9488L112.656 1.33942H119.059Z" fill="white"/>
<path d="M133.462 1.33942C136.34 1.33942 138.572 2.01949 140.158 3.37964C141.768 4.71549 142.573 6.50068 142.573 8.73521C142.573 11.1883 141.78 13.0585 140.195 14.3458C138.609 15.6331 136.377 16.2767 133.498 16.2767L132.913 16.6046H128.12V25.3848H121.936V1.33942H133.462ZM132.584 12.1599C133.803 12.1599 134.718 11.917 135.328 11.4312C135.938 10.9454 136.243 10.1682 136.243 9.09953C136.243 8.05514 135.938 7.29005 135.328 6.80429C134.718 6.31852 133.803 6.07564 132.584 6.07564H128.12V12.1599H132.584ZM136.279 13.4714L144 25.3848H137.048L130.864 14.8559L136.279 13.4714Z" fill="white"/>
</svg>
