<svg width="312" height="337" viewBox="0 0 312 337" fill="none" xmlns="http://www.w3.org/2000/svg">
<ellipse cx="146.03" cy="151.604" rx="146.03" ry="145.995" fill="url(#paint0_radial_828_2219)"/>
<ellipse cx="146.03" cy="151.604" rx="146.03" ry="145.995" fill="url(#paint1_radial_828_2219)"/>
<mask id="mask0_828_2219" style="mask-type:alpha" maskUnits="userSpaceOnUse" x="0" y="5" width="293" height="293">
<ellipse cx="146.03" cy="151.604" rx="146.03" ry="145.995" fill="#D9D9D9"/>
</mask>
<g mask="url(#mask0_828_2219)">
<g filter="url(#filter0_f_828_2219)">
<path d="M190.026 178.646C192.74 118.269 160.778 151.175 241.286 63.6276C261.589 69.9672 290.013 90.4954 241.286 121.892C180.377 161.137 253.95 246.269 151.732 327.778C49.5143 409.287 -15.3142 162.344 67.6059 197.061C150.526 231.778 187.312 239.023 190.026 178.646Z" fill="url(#paint2_linear_828_2219)"/>
</g>
<g filter="url(#filter1_f_828_2219)">
<path d="M42.4604 39.9326C7.86966 55.1335 -8.81242 76.4638 -26.2305 24.7317C16.9467 6.42531 124.203 -26.3628 207.809 -11.0639C312.318 8.05981 194.071 153.694 150.649 156.881C107.226 160.069 204.375 58.5659 150.649 47.0427C96.9225 35.5195 126.607 91.1743 77.0512 86.2708C27.4956 81.3673 77.0512 24.7317 42.4604 39.9326Z" fill="url(#paint3_linear_828_2219)"/>
</g>
<g filter="url(#filter2_f_828_2219)">
<path d="M170.408 214.7C187.988 206.964 196.466 196.11 205.318 222.435C183.375 231.751 128.865 248.437 86.3738 240.651C33.2602 230.92 93.3559 156.808 115.424 155.186C137.493 153.564 88.1193 205.218 115.424 211.082C142.729 216.946 127.643 188.624 152.828 191.119C178.013 193.614 152.828 222.435 170.408 214.7Z" fill="url(#paint4_linear_828_2219)"/>
</g>
</g>
<ellipse cx="146.331" cy="151.303" rx="118.029" ry="118" fill="url(#paint5_radial_828_2219)"/>
<ellipse cx="146.03" cy="151.604" rx="83.4029" ry="83.383" fill="url(#paint6_radial_828_2219)"/>
<g filter="url(#filter3_b_828_2219)">
<ellipse cx="50.8651" cy="50.8723" rx="50.8651" ry="50.8723" transform="matrix(0.444371 -0.895843 0.895927 0.444201 129.47 291.805)" fill="url(#paint7_radial_828_2219)"/>
<ellipse cx="50.8651" cy="50.8723" rx="50.8651" ry="50.8723" transform="matrix(0.444371 -0.895843 0.895927 0.444201 129.47 291.805)" fill="url(#paint8_radial_828_2219)"/>
</g>
<mask id="mask1_828_2219" style="mask-type:alpha" maskUnits="userSpaceOnUse" x="146" y="217" width="103" height="103">
<ellipse cx="50.8651" cy="50.8723" rx="50.8651" ry="50.8723" transform="matrix(0.444371 -0.895843 0.895927 0.444201 129.47 291.805)" fill="#D9D9D9"/>
</mask>
<g mask="url(#mask1_828_2219)">
<g filter="url(#filter4_f_828_2219)">
<path d="M223.061 264.329C204.632 254.137 209.957 269.204 195.088 230.531C200.209 225.177 211.017 219.485 213.277 239.549C216.101 264.63 254.066 254.849 263.691 299.361C273.315 343.873 186.188 325.88 209.861 305.379C233.534 284.879 241.49 274.521 223.061 264.329Z" fill="url(#paint9_linear_828_2219)"/>
</g>
<g filter="url(#filter5_f_828_2219)">
<path d="M146.758 283.868C146.149 297.015 150.226 305.522 131.38 302.95C132.348 286.643 138.713 248.1 156.43 224.38C178.577 194.729 205.739 254.168 200.013 268.211C194.287 282.254 177.636 236.229 165.723 251.21C153.81 266.191 175.779 265.543 166.578 280.247C157.377 294.951 147.366 270.722 146.758 283.868Z" fill="url(#paint10_linear_828_2219)"/>
</g>
</g>
<g filter="url(#filter6_b_828_2219)">
<ellipse cx="37.0883" cy="37.0935" rx="37.0883" ry="37.0935" transform="matrix(0.444371 -0.895843 0.895927 0.444201 212.572 66.4505)" fill="url(#paint11_radial_828_2219)"/>
<ellipse cx="37.0883" cy="37.0935" rx="37.0883" ry="37.0935" transform="matrix(0.444371 -0.895843 0.895927 0.444201 212.572 66.4505)" fill="url(#paint12_radial_828_2219)"/>
</g>
<mask id="mask2_828_2219" style="mask-type:alpha" maskUnits="userSpaceOnUse" x="250" y="35" width="29" height="30">
<ellipse cx="14.2532" cy="14.2552" rx="14.2532" ry="14.2552" transform="matrix(0.444371 -0.895843 0.895927 0.444201 245.399 56.4637)" fill="#D9D9D9"/>
</mask>
<g mask="url(#mask2_828_2219)">
<g filter="url(#filter7_f_828_2219)">
<path d="M271.625 48.7644C266.461 45.9084 267.953 50.1303 263.787 39.2937C265.222 37.7934 268.25 36.1985 268.884 41.8208C269.675 48.8487 280.313 46.108 283.01 58.581C285.707 71.0541 261.293 66.012 267.926 60.2674C274.56 54.5227 276.789 51.6204 271.625 48.7644Z" fill="url(#paint13_linear_828_2219)"/>
</g>
<g filter="url(#filter8_f_828_2219)">
<path d="M250.244 54.2396C250.073 57.9234 251.216 60.3072 245.935 59.5865C246.206 55.0171 247.99 44.2168 252.954 37.5699C259.16 29.2613 266.771 45.9171 265.167 49.8521C263.562 53.7872 258.896 40.8902 255.558 45.0881C252.22 49.2861 258.376 49.1044 255.798 53.2248C253.219 57.3452 250.414 50.5557 250.244 54.2396Z" fill="url(#paint14_linear_828_2219)"/>
</g>
</g>
<g filter="url(#filter9_b_828_2219)">
<ellipse cx="21.4172" cy="21.419" rx="21.4172" ry="21.419" transform="matrix(0.562356 0.826895 -0.82702 0.562173 44.4604 23.068)" fill="url(#paint15_radial_828_2219)"/>
<ellipse cx="21.4172" cy="21.419" rx="21.4172" ry="21.419" transform="matrix(0.562356 0.826895 -0.82702 0.562173 44.4604 23.068)" fill="url(#paint16_radial_828_2219)"/>
</g>
<mask id="mask3_828_2219" style="mask-type:alpha" maskUnits="userSpaceOnUse" x="29" y="45" width="18" height="18">
<ellipse cx="8.23074" cy="8.23144" rx="8.23074" ry="8.23144" transform="matrix(0.562356 0.826895 -0.82702 0.562173 40.1772 42.4094)" fill="#D9D9D9"/>
</mask>
<g mask="url(#mask3_828_2219)">
<g filter="url(#filter10_f_828_2219)">
<path d="M36.6147 57.7818C39.516 55.9945 36.9686 55.5479 43.6026 56.5252C43.9505 57.6723 43.8942 59.6478 40.8858 58.3719C37.1253 56.7771 35.4877 62.9044 28.4471 60.7239C21.4065 58.5434 30.8663 47.6949 31.8757 52.6599C32.8852 57.6249 33.7133 59.569 36.6147 57.7818Z" fill="url(#paint17_linear_828_2219)"/>
</g>
<g filter="url(#filter11_f_828_2219)">
<path d="M39.9222 45.4761C38.117 44.3457 36.5936 44.2443 38.4537 41.7928C40.6759 43.2249 45.6044 47.1845 47.541 51.566C49.9618 57.0429 39.4231 56.1479 37.8982 54.2252C36.3732 52.3024 44.1854 53.6129 43.0198 50.7437C41.8542 47.8745 40.2 51.022 38.8579 48.557C37.5158 46.0919 41.7274 46.6064 39.9222 45.4761Z" fill="url(#paint18_linear_828_2219)"/>
</g>
</g>
<defs>
<filter id="filter0_f_828_2219" x="-30.4577" y="3.3959" width="358.88" height="401.216" filterUnits="userSpaceOnUse" color-interpolation-filters="sRGB">
<feFlood flood-opacity="0" result="BackgroundImageFix"/>
<feBlend mode="normal" in="SourceGraphic" in2="BackgroundImageFix" result="shape"/>
<feGaussianBlur stdDeviation="30.1158" result="effect1_foregroundBlur_828_2219"/>
</filter>
<filter id="filter1_f_828_2219" x="-86.4621" y="-75.2478" width="396.482" height="292.434" filterUnits="userSpaceOnUse" color-interpolation-filters="sRGB">
<feFlood flood-opacity="0" result="BackgroundImageFix"/>
<feBlend mode="normal" in="SourceGraphic" in2="BackgroundImageFix" result="shape"/>
<feGaussianBlur stdDeviation="30.1158" result="effect1_foregroundBlur_828_2219"/>
</filter>
<filter id="filter2_f_828_2219" x="34.9232" y="125.033" width="200.511" height="147.745" filterUnits="userSpaceOnUse" color-interpolation-filters="sRGB">
<feFlood flood-opacity="0" result="BackgroundImageFix"/>
<feBlend mode="normal" in="SourceGraphic" in2="BackgroundImageFix" result="shape"/>
<feGaussianBlur stdDeviation="15.0579" result="effect1_foregroundBlur_828_2219"/>
</filter>
<filter id="filter3_b_828_2219" x="129.298" y="200.494" width="136.706" height="136.682" filterUnits="userSpaceOnUse" color-interpolation-filters="sRGB">
<feFlood flood-opacity="0" result="BackgroundImageFix"/>
<feGaussianBlur in="BackgroundImageFix" stdDeviation="8.73359"/>
<feComposite in2="SourceAlpha" operator="in" result="effect1_backgroundBlur_828_2219"/>
<feBlend mode="normal" in="SourceGraphic" in2="effect1_backgroundBlur_828_2219" result="shape"/>
</filter>
<filter id="filter4_f_828_2219" x="134.856" y="165.235" width="189.812" height="221.948" filterUnits="userSpaceOnUse" color-interpolation-filters="sRGB">
<feFlood flood-opacity="0" result="BackgroundImageFix"/>
<feBlend mode="normal" in="SourceGraphic" in2="BackgroundImageFix" result="shape"/>
<feGaussianBlur stdDeviation="30.1158" result="effect1_foregroundBlur_828_2219"/>
</filter>
<filter id="filter5_f_828_2219" x="71.1482" y="155.968" width="189.872" height="207.672" filterUnits="userSpaceOnUse" color-interpolation-filters="sRGB">
<feFlood flood-opacity="0" result="BackgroundImageFix"/>
<feBlend mode="normal" in="SourceGraphic" in2="BackgroundImageFix" result="shape"/>
<feGaussianBlur stdDeviation="30.1158" result="effect1_foregroundBlur_828_2219"/>
</filter>
<filter id="filter6_b_828_2219" x="207.715" y="-4.8597" width="109.141" height="109.124" filterUnits="userSpaceOnUse" color-interpolation-filters="sRGB">
<feFlood flood-opacity="0" result="BackgroundImageFix"/>
<feGaussianBlur in="BackgroundImageFix" stdDeviation="8.73359"/>
<feComposite in2="SourceAlpha" operator="in" result="effect1_backgroundBlur_828_2219"/>
<feBlend mode="normal" in="SourceGraphic" in2="effect1_backgroundBlur_828_2219" result="shape"/>
</filter>
<filter id="filter7_f_828_2219" x="203.555" y="-22.3571" width="139.896" height="148.901" filterUnits="userSpaceOnUse" color-interpolation-filters="sRGB">
<feFlood flood-opacity="0" result="BackgroundImageFix"/>
<feBlend mode="normal" in="SourceGraphic" in2="BackgroundImageFix" result="shape"/>
<feGaussianBlur stdDeviation="30.1158" result="effect1_foregroundBlur_828_2219"/>
</filter>
<filter id="filter8_f_828_2219" x="185.703" y="-24.9539" width="139.913" height="144.901" filterUnits="userSpaceOnUse" color-interpolation-filters="sRGB">
<feFlood flood-opacity="0" result="BackgroundImageFix"/>
<feBlend mode="normal" in="SourceGraphic" in2="BackgroundImageFix" result="shape"/>
<feGaussianBlur stdDeviation="30.1158" result="effect1_foregroundBlur_828_2219"/>
</filter>
<filter id="filter9_b_828_2219" x="-0.0995064" y="13.9341" width="77.7801" height="77.7697" filterUnits="userSpaceOnUse" color-interpolation-filters="sRGB">
<feFlood flood-opacity="0" result="BackgroundImageFix"/>
<feGaussianBlur in="BackgroundImageFix" stdDeviation="8.73359"/>
<feComposite in2="SourceAlpha" operator="in" result="effect1_backgroundBlur_828_2219"/>
<feBlend mode="normal" in="SourceGraphic" in2="effect1_backgroundBlur_828_2219" result="shape"/>
</filter>
<filter id="filter10_f_828_2219" x="-34.3703" y="-8.85886" width="138.35" height="130.289" filterUnits="userSpaceOnUse" color-interpolation-filters="sRGB">
<feFlood flood-opacity="0" result="BackgroundImageFix"/>
<feBlend mode="normal" in="SourceGraphic" in2="BackgroundImageFix" result="shape"/>
<feGaussianBlur stdDeviation="30.1158" result="effect1_foregroundBlur_828_2219"/>
</filter>
<filter id="filter11_f_828_2219" x="-22.6257" y="-18.4388" width="130.758" height="134.382" filterUnits="userSpaceOnUse" color-interpolation-filters="sRGB">
<feFlood flood-opacity="0" result="BackgroundImageFix"/>
<feBlend mode="normal" in="SourceGraphic" in2="BackgroundImageFix" result="shape"/>
<feGaussianBlur stdDeviation="30.1158" result="effect1_foregroundBlur_828_2219"/>
</filter>
<radialGradient id="paint0_radial_828_2219" cx="0" cy="0" r="1" gradientUnits="userSpaceOnUse" gradientTransform="translate(146.03 145.357) rotate(90) scale(143.976 144.01)">
<stop stop-color="#ED1E9A" stop-opacity="0.5"/>
<stop offset="1" stop-color="#ED1E79" stop-opacity="0"/>
</radialGradient>
<radialGradient id="paint1_radial_828_2219" cx="0" cy="0" r="1" gradientUnits="userSpaceOnUse" gradientTransform="translate(145.782 151.356) rotate(90) scale(225.562 224.383)">
<stop offset="0.527792" stop-color="#FBB03B" stop-opacity="0"/>
<stop offset="0.755208" stop-color="#FFBB51" stop-opacity="0.417815"/>
<stop offset="0.932292" stop-color="#FFDFAE"/>
<stop offset="1" stop-color="white" stop-opacity="0.965754"/>
</radialGradient>
<linearGradient id="paint2_linear_828_2219" x1="234.652" y1="94.42" x2="117.765" y2="275.425" gradientUnits="userSpaceOnUse">
<stop stop-color="#ED1E79"/>
<stop offset="1" stop-color="#FBB03B"/>
</linearGradient>
<linearGradient id="paint3_linear_828_2219" x1="78.9769" y1="38.1749" x2="204.186" y2="95.7075" gradientUnits="userSpaceOnUse">
<stop stop-color="#FFBA34"/>
<stop offset="1" stop-color="#FF0CBB"/>
</linearGradient>
<linearGradient id="paint4_linear_828_2219" x1="139.942" y1="217.193" x2="123.94" y2="154.967" gradientUnits="userSpaceOnUse">
<stop stop-color="white"/>
<stop offset="1" stop-color="#FCFF57"/>
</linearGradient>
<radialGradient id="paint5_radial_828_2219" cx="0" cy="0" r="1" gradientUnits="userSpaceOnUse" gradientTransform="translate(146.13 151.102) rotate(90) scale(182.31 181.357)">
<stop offset="0.527792" stop-color="#FBB03B" stop-opacity="0"/>
<stop offset="0.755208" stop-color="#FFBB51" stop-opacity="0.417815"/>
<stop offset="0.932292" stop-color="#FFDFAE"/>
<stop offset="1" stop-color="white" stop-opacity="0.965754"/>
</radialGradient>
<radialGradient id="paint6_radial_828_2219" cx="0" cy="0" r="1" gradientUnits="userSpaceOnUse" gradientTransform="translate(145.888 151.462) rotate(90) scale(128.826 128.153)">
<stop offset="0.527792" stop-color="#FBB03B" stop-opacity="0"/>
<stop offset="0.755208" stop-color="#FFBB51" stop-opacity="0.417815"/>
<stop offset="0.932292" stop-color="#FFDFAE"/>
<stop offset="1" stop-color="white" stop-opacity="0.965754"/>
</radialGradient>
<radialGradient id="paint7_radial_828_2219" cx="0" cy="0" r="1" gradientUnits="userSpaceOnUse" gradientTransform="translate(63.7609 25.7866) rotate(107.819) scale(77.3223 77.3135)">
<stop stop-color="#ED1E79"/>
<stop offset="0.293871" stop-color="#ED1E79" stop-opacity="0.647255"/>
<stop offset="1" stop-color="#ED1E79" stop-opacity="0"/>
</radialGradient>
<radialGradient id="paint8_radial_828_2219" cx="0" cy="0" r="1" gradientUnits="userSpaceOnUse" gradientTransform="translate(50.7785 50.7857) rotate(90) scale(78.5973 78.1568)">
<stop offset="0.527792" stop-color="#FBB03B" stop-opacity="0"/>
<stop offset="0.755208" stop-color="#FFBB51" stop-opacity="0.417815"/>
<stop offset="0.932292" stop-color="#FFDFAE"/>
<stop offset="1" stop-color="white" stop-opacity="0.965754"/>
</radialGradient>
<linearGradient id="paint9_linear_828_2219" x1="203.674" y1="237.367" x2="242.062" y2="301.873" gradientUnits="userSpaceOnUse">
<stop stop-color="#ED1E79"/>
<stop offset="1" stop-color="#FBB03B"/>
</linearGradient>
<linearGradient id="paint10_linear_828_2219" x1="151.861" y1="272.202" x2="168.119" y2="251.956" gradientUnits="userSpaceOnUse">
<stop stop-color="#FFBA34"/>
<stop offset="1" stop-color="#FF0CBB"/>
</linearGradient>
<radialGradient id="paint11_radial_828_2219" cx="0" cy="0" r="1" gradientUnits="userSpaceOnUse" gradientTransform="translate(52.4464 4.24024) rotate(108.783) scale(72.0755 72.0675)">
<stop stop-color="#FFDA56" stop-opacity="0"/>
<stop offset="0.555483" stop-color="#FF891C" stop-opacity="0.45"/>
<stop offset="1" stop-color="#FF7DD3"/>
</radialGradient>
<radialGradient id="paint12_radial_828_2219" cx="0" cy="0" r="1" gradientUnits="userSpaceOnUse" gradientTransform="translate(37.0251 37.0303) rotate(90) scale(57.3092 56.988)">
<stop offset="0.527792" stop-color="#FBB03B" stop-opacity="0"/>
<stop offset="0.755208" stop-color="#FFBB51" stop-opacity="0.417815"/>
<stop offset="0.932292" stop-color="#FFDFAE"/>
<stop offset="1" stop-color="white" stop-opacity="0.965754"/>
</radialGradient>
<linearGradient id="paint13_linear_828_2219" x1="266.193" y1="41.2093" x2="276.95" y2="59.2849" gradientUnits="userSpaceOnUse">
<stop stop-color="#ED1E79"/>
<stop offset="1" stop-color="#FBB03B"/>
</linearGradient>
<linearGradient id="paint14_linear_828_2219" x1="251.674" y1="50.9704" x2="256.23" y2="45.2972" gradientUnits="userSpaceOnUse">
<stop stop-color="#FFBA34"/>
<stop offset="1" stop-color="#FF0CBB"/>
</linearGradient>
<radialGradient id="paint15_radial_828_2219" cx="0" cy="0" r="1" gradientUnits="userSpaceOnUse" gradientTransform="translate(30.286 2.44845) rotate(108.784) scale(41.619 41.6162)">
<stop stop-color="#FFDA56" stop-opacity="0"/>
<stop offset="0.555483" stop-color="#FF891C" stop-opacity="0.45"/>
<stop offset="1" stop-color="#FF7DD3"/>
</radialGradient>
<radialGradient id="paint16_radial_828_2219" cx="0" cy="0" r="1" gradientUnits="userSpaceOnUse" gradientTransform="translate(21.3807 21.3825) rotate(90) scale(33.0922 32.9086)">
<stop offset="0.527792" stop-color="#FBB03B" stop-opacity="0"/>
<stop offset="0.755208" stop-color="#FFBB51" stop-opacity="0.417815"/>
<stop offset="0.932292" stop-color="#FFDFAE"/>
<stop offset="1" stop-color="white" stop-opacity="0.965754"/>
</radialGradient>
<linearGradient id="paint17_linear_828_2219" x1="41.9565" y1="57.192" x2="29.8115" y2="57.479" gradientUnits="userSpaceOnUse">
<stop stop-color="#ED1E79"/>
<stop offset="1" stop-color="#FBB03B"/>
</linearGradient>
<linearGradient id="paint18_linear_828_2219" x1="41.1616" y1="47.1223" x2="42.7226" y2="51.0228" gradientUnits="userSpaceOnUse">
<stop stop-color="#FFBA34"/>
<stop offset="1" stop-color="#FF0CBB"/>
</linearGradient>
</defs>
</svg>
