<svg width="312" height="324" viewBox="0 0 312 324" fill="none" xmlns="http://www.w3.org/2000/svg">
<mask id="mask0_828_2185" style="mask-type:alpha" maskUnits="userSpaceOnUse" x="0" y="0" width="312" height="324">
<rect width="312" height="324" fill="url(#paint0_linear_828_2185)"/>
</mask>
<g mask="url(#mask0_828_2185)">
<g filter="url(#filter0_b_828_2185)">
<rect width="160.921" height="316.018" rx="80.4607" transform="matrix(0.964342 0.264659 -0.264975 0.964255 132.369 -10.9387)" fill="url(#paint1_radial_828_2185)"/>
<rect width="160.921" height="316.018" rx="80.4607" transform="matrix(0.964342 0.264659 -0.264975 0.964255 132.369 -10.9387)" fill="url(#paint2_radial_828_2185)"/>
</g>
<mask id="mask1_828_2185" style="mask-type:alpha" maskUnits="userSpaceOnUse" x="67" y="7" width="203" height="311">
<rect width="160.921" height="316.018" rx="80.4607" transform="matrix(0.964342 0.264659 -0.264975 0.964255 132.369 -10.9387)" fill="#D9D9D9"/>
</mask>
<g mask="url(#mask1_828_2185)">
<g filter="url(#filter1_f_828_2185)">
<path d="M207.103 83.489C187.042 40.0811 197.171 43.1724 290.162 46.118C269.945 50.8074 232.507 70.2809 244.492 110.659C259.473 161.133 236.932 260.211 191.886 211.831C146.84 163.451 159.527 221.127 186.935 295.998C214.343 370.869 105.52 198.485 48.723 118.687C-8.07433 38.8899 97.5182 87.2705 168.525 158.747C239.532 230.223 227.164 126.897 207.103 83.489Z" fill="url(#paint3_linear_828_2185)"/>
</g>
<g filter="url(#filter2_f_828_2185)">
<path d="M186.129 39.7914C156.961 21.559 148.862 35.8871 221.119 -13.7366C213.473 0.144155 203.326 31.4 223.908 45.3774C249.635 62.8491 139.74 121.394 130.344 94.8108C120.947 68.2276 215.297 58.0237 186.129 39.7914Z" fill="url(#paint4_linear_828_2185)"/>
</g>
</g>
<g filter="url(#filter3_b_828_2185)">
<rect width="51.7975" height="101.91" rx="25.8988" transform="matrix(-0.21211 -0.977246 0.977105 -0.212758 188.867 243.742)" fill="url(#paint5_radial_828_2185)"/>
<rect width="51.7975" height="101.91" rx="25.8988" transform="matrix(-0.21211 -0.977246 0.977105 -0.212758 188.867 243.742)" fill="url(#paint6_radial_828_2185)"/>
</g>
<mask id="mask2_828_2185" style="mask-type:alpha" maskUnits="userSpaceOnUse" x="182" y="176" width="102" height="63">
<rect width="51.7975" height="101.91" rx="25.8988" transform="matrix(-0.21211 -0.977246 0.977105 -0.212758 188.867 243.742)" fill="#D9D9D9"/>
</mask>
<g mask="url(#mask2_828_2185)">
<g filter="url(#filter4_f_828_2185)">
<path d="M204.704 208.307C195.291 220.521 194.664 217.17 181.635 190.213C185.99 195.276 197.14 203.039 206.891 193.582C219.08 181.76 250.757 173.368 243.651 193.45C236.544 213.531 251.134 201.286 268.442 182.272C285.749 163.258 252.719 220.073 238.387 248.205C224.055 276.336 222.131 238.99 231.965 208.051C241.799 177.112 214.116 196.094 204.704 208.307Z" fill="url(#paint7_linear_828_2185)"/>
</g>
<g filter="url(#filter5_f_828_2185)">
<path d="M195.345 220.824C194.485 231.868 199.788 232.035 174.829 218.853C179.936 218.957 190.382 217.175 191.306 209.216C192.461 199.266 225.584 221.846 219.389 228.502C213.194 235.157 196.204 209.78 195.345 220.824Z" fill="url(#paint8_linear_828_2185)"/>
</g>
</g>
<g filter="url(#filter6_b_828_2185)">
<rect width="47.0656" height="92.4699" rx="23.5328" transform="matrix(0.875848 -0.482586 -0.483621 -0.875278 68.5171 287.295)" fill="url(#paint9_radial_828_2185)"/>
<rect width="47.0656" height="92.4699" rx="23.5328" transform="matrix(0.875848 -0.482586 -0.483621 -0.875278 68.5171 287.295)" fill="url(#paint10_radial_828_2185)"/>
</g>
<mask id="mask3_828_2185" style="mask-type:alpha" maskUnits="userSpaceOnUse" x="32" y="192" width="70" height="87">
<rect width="47.0656" height="92.4699" rx="23.5328" transform="matrix(0.875848 -0.482586 -0.483621 -0.875278 68.5171 287.295)" fill="#D9D9D9"/>
</mask>
<g mask="url(#mask3_828_2185)">
<g filter="url(#filter7_f_828_2185)">
<path d="M83.3002 255.329C80.5698 269.047 83.2391 267.475 109.486 260.281C103.414 260.329 91.431 257.349 92.0719 245.046C92.8731 229.666 79.6701 203.027 70.1745 219.866C60.6788 236.706 60.3336 219.434 62.9969 196.266C65.6601 173.097 46.5252 229.566 35.8408 256.144C25.1564 282.723 51.8727 261.745 67.169 236.561C82.4652 211.378 86.0305 241.612 83.3002 255.329Z" fill="url(#paint11_linear_828_2185)"/>
</g>
<g filter="url(#filter8_f_828_2185)">
<path d="M80.3302 269.192C73.2841 276.371 69.9982 272.85 93.9513 282.024C90.8251 278.599 85.7965 270.403 90.6923 265.02C96.8121 258.292 61.5425 249.153 60.6921 257.356C59.8418 265.559 87.3763 262.012 80.3302 269.192Z" fill="url(#paint12_linear_828_2185)"/>
</g>
</g>
<g filter="url(#filter9_b_828_2185)">
<rect width="90.241" height="177.674" rx="45.1205" transform="matrix(0.0762888 0.997086 0.997095 -0.0761744 23.9214 50.147)" fill="url(#paint13_radial_828_2185)"/>
<rect width="90.241" height="177.674" rx="45.1205" transform="matrix(0.0762888 0.997086 0.997095 -0.0761744 23.9214 50.147)" fill="url(#paint14_radial_828_2185)"/>
</g>
<mask id="mask4_828_2185" style="mask-type:alpha" maskUnits="userSpaceOnUse" x="27" y="39" width="178" height="98">
<rect width="90.241" height="177.674" rx="45.1205" transform="matrix(0.0762888 0.997086 0.997095 -0.0761744 23.9214 50.147)" fill="#D9D9D9"/>
</mask>
<g mask="url(#mask4_828_2185)">
<g filter="url(#filter10_f_828_2185)">
<path d="M68.0487 101.386C46.2345 85.6996 46.8571 91.6062 38.5343 143.107C43.2858 132.481 58.0401 113.957 79.0462 124.874C105.304 138.52 162.405 136.712 140.52 106.741C118.634 76.7697 149.113 89.9236 187.508 113.021C225.903 136.117 142.393 57.7737 104.422 17.9726C66.4517 -21.8284 81.8601 41.4705 113.717 88.2028C145.574 134.935 89.8629 117.073 68.0487 101.386Z" fill="url(#paint15_linear_828_2185)"/>
</g>
<g filter="url(#filter11_f_828_2185)">
<path d="M46.172 85.1665C39.2286 67.1608 48.004 64.2352 12.882 98.6999C21.362 95.9761 39.7003 93.7346 45.2136 106.559C52.1052 122.59 96.1784 68.3624 82.5102 60.346C68.842 52.3297 53.1154 103.172 46.172 85.1665Z" fill="url(#paint16_linear_828_2185)"/>
</g>
</g>
<g filter="url(#filter12_f_828_2185)">
<ellipse cx="201.72" cy="82.524" rx="36.6311" ry="36.6128" fill="url(#paint17_linear_828_2185)"/>
</g>
</g>
<defs>
<filter id="filter0_b_828_2185" x="53.3507" y="-6.23915" width="229.483" height="337.912" filterUnits="userSpaceOnUse" color-interpolation-filters="sRGB">
<feFlood flood-opacity="0" result="BackgroundImageFix"/>
<feGaussianBlur in="BackgroundImageFix" stdDeviation="6.85273"/>
<feComposite in2="SourceAlpha" operator="in" result="effect1_backgroundBlur_828_2185"/>
<feBlend mode="normal" in="SourceGraphic" in2="effect1_backgroundBlur_828_2185" result="shape"/>
</filter>
<filter id="filter1_f_828_2185" x="-9.61548" y="2.43896" width="341.948" height="354.148" filterUnits="userSpaceOnUse" color-interpolation-filters="sRGB">
<feFlood flood-opacity="0" result="BackgroundImageFix"/>
<feBlend mode="normal" in="SourceGraphic" in2="BackgroundImageFix" result="shape"/>
<feGaussianBlur stdDeviation="21.0853" result="effect1_foregroundBlur_828_2185"/>
</filter>
<filter id="filter2_f_828_2185" x="103.326" y="-40.0932" width="150.83" height="168.077" filterUnits="userSpaceOnUse" color-interpolation-filters="sRGB">
<feFlood flood-opacity="0" result="BackgroundImageFix"/>
<feBlend mode="normal" in="SourceGraphic" in2="BackgroundImageFix" result="shape"/>
<feGaussianBlur stdDeviation="13.1783" result="effect1_foregroundBlur_828_2185"/>
</filter>
<filter id="filter3_b_828_2185" x="176.226" y="169.8" width="113.871" height="75.5821" filterUnits="userSpaceOnUse" color-interpolation-filters="sRGB">
<feFlood flood-opacity="0" result="BackgroundImageFix"/>
<feGaussianBlur in="BackgroundImageFix" stdDeviation="3.27619"/>
<feComposite in2="SourceAlpha" operator="in" result="effect1_backgroundBlur_828_2185"/>
<feBlend mode="normal" in="SourceGraphic" in2="effect1_backgroundBlur_828_2185" result="shape"/>
</filter>
<filter id="filter4_f_828_2185" x="161.474" y="158.296" width="132.026" height="120.014" filterUnits="userSpaceOnUse" color-interpolation-filters="sRGB">
<feFlood flood-opacity="0" result="BackgroundImageFix"/>
<feBlend mode="normal" in="SourceGraphic" in2="BackgroundImageFix" result="shape"/>
<feGaussianBlur stdDeviation="10.0806" result="effect1_foregroundBlur_828_2185"/>
</filter>
<filter id="filter5_f_828_2185" x="162.228" y="194.12" width="70.5335" height="48.1126" filterUnits="userSpaceOnUse" color-interpolation-filters="sRGB">
<feFlood flood-opacity="0" result="BackgroundImageFix"/>
<feBlend mode="normal" in="SourceGraphic" in2="BackgroundImageFix" result="shape"/>
<feGaussianBlur stdDeviation="6.30037" result="effect1_foregroundBlur_828_2185"/>
</filter>
<filter id="filter6_b_828_2185" x="28.0911" y="187.925" width="77.3539" height="95.0895" filterUnits="userSpaceOnUse" color-interpolation-filters="sRGB">
<feFlood flood-opacity="0" result="BackgroundImageFix"/>
<feGaussianBlur in="BackgroundImageFix" stdDeviation="2.07432"/>
<feComposite in2="SourceAlpha" operator="in" result="effect1_backgroundBlur_828_2185"/>
<feBlend mode="normal" in="SourceGraphic" in2="effect1_backgroundBlur_828_2185" result="shape"/>
</filter>
<filter id="filter7_f_828_2185" x="20.6197" y="178.045" width="101.631" height="103.199" filterUnits="userSpaceOnUse" color-interpolation-filters="sRGB">
<feFlood flood-opacity="0" result="BackgroundImageFix"/>
<feBlend mode="normal" in="SourceGraphic" in2="BackgroundImageFix" result="shape"/>
<feGaussianBlur stdDeviation="6.38252" result="effect1_foregroundBlur_828_2185"/>
</filter>
<filter id="filter8_f_828_2185" x="52.6947" y="246.133" width="49.2346" height="43.8698" filterUnits="userSpaceOnUse" color-interpolation-filters="sRGB">
<feFlood flood-opacity="0" result="BackgroundImageFix"/>
<feBlend mode="normal" in="SourceGraphic" in2="BackgroundImageFix" result="shape"/>
<feGaussianBlur stdDeviation="3.98907" result="effect1_foregroundBlur_828_2185"/>
</filter>
<filter id="filter9_b_828_2185" x="19.2672" y="31.9537" width="193.35" height="112.83" filterUnits="userSpaceOnUse" color-interpolation-filters="sRGB">
<feFlood flood-opacity="0" result="BackgroundImageFix"/>
<feGaussianBlur in="BackgroundImageFix" stdDeviation="3.98141"/>
<feComposite in2="SourceAlpha" operator="in" result="effect1_backgroundBlur_828_2185"/>
<feBlend mode="normal" in="SourceGraphic" in2="effect1_backgroundBlur_828_2185" result="shape"/>
</filter>
<filter id="filter10_f_828_2185" x="14.0332" y="-19.1017" width="207.836" height="186.71" filterUnits="userSpaceOnUse" color-interpolation-filters="sRGB">
<feFlood flood-opacity="0" result="BackgroundImageFix"/>
<feBlend mode="normal" in="SourceGraphic" in2="BackgroundImageFix" result="shape"/>
<feGaussianBlur stdDeviation="12.2505" result="effect1_foregroundBlur_828_2185"/>
</filter>
<filter id="filter11_f_828_2185" x="-2.43128" y="44.1685" width="102.867" height="80.6508" filterUnits="userSpaceOnUse" color-interpolation-filters="sRGB">
<feFlood flood-opacity="0" result="BackgroundImageFix"/>
<feBlend mode="normal" in="SourceGraphic" in2="BackgroundImageFix" result="shape"/>
<feGaussianBlur stdDeviation="7.65656" result="effect1_foregroundBlur_828_2185"/>
</filter>
<filter id="filter12_f_828_2185" x="112.207" y="-6.9701" width="179.025" height="178.988" filterUnits="userSpaceOnUse" color-interpolation-filters="sRGB">
<feFlood flood-opacity="0" result="BackgroundImageFix"/>
<feBlend mode="normal" in="SourceGraphic" in2="BackgroundImageFix" result="shape"/>
<feGaussianBlur stdDeviation="26.4407" result="effect1_foregroundBlur_828_2185"/>
</filter>
<linearGradient id="paint0_linear_828_2185" x1="156" y1="136.365" x2="156" y2="324" gradientUnits="userSpaceOnUse">
<stop stop-color="#D9D9D9"/>
<stop offset="0.707676" stop-color="#D9D9D9" stop-opacity="0.197686"/>
<stop offset="0.958672" stop-color="#D9D9D9" stop-opacity="0"/>
</linearGradient>
<radialGradient id="paint1_radial_828_2185" cx="0" cy="0" r="1" gradientUnits="userSpaceOnUse" gradientTransform="translate(80.4607 158.009) rotate(90) scale(185.2 107.314)">
<stop stop-color="#ED1E79" stop-opacity="0.1"/>
<stop offset="0.729167" stop-color="#F03F6B" stop-opacity="0"/>
<stop offset="1" stop-color="#FBB03B"/>
</radialGradient>
<radialGradient id="paint2_radial_828_2185" cx="0" cy="0" r="1" gradientUnits="userSpaceOnUse" gradientTransform="translate(80.4607) rotate(90) scale(316.018 183.117)">
<stop stop-color="#ED1E79" stop-opacity="0"/>
<stop offset="0.915253" stop-color="#F03F6B" stop-opacity="0"/>
<stop offset="1" stop-color="white"/>
</radialGradient>
<linearGradient id="paint3_linear_828_2185" x1="250.153" y1="75.2453" x2="99.8595" y2="289.895" gradientUnits="userSpaceOnUse">
<stop stop-color="#FBAE3C"/>
<stop offset="1" stop-color="#FF0E48"/>
</linearGradient>
<linearGradient id="paint4_linear_828_2185" x1="201.825" y1="11.7909" x2="186.743" y2="107.25" gradientUnits="userSpaceOnUse">
<stop stop-color="#FF782C"/>
<stop offset="1" stop-color="#4BC9FF"/>
</linearGradient>
<radialGradient id="paint5_radial_828_2185" cx="0" cy="0" r="1" gradientUnits="userSpaceOnUse" gradientTransform="translate(25.8988 50.9548) rotate(90) scale(59.7233 34.5424)">
<stop stop-color="#ED1E79" stop-opacity="0.1"/>
<stop offset="0.729167" stop-color="#F03F6B" stop-opacity="0"/>
<stop offset="1" stop-color="#FBB03B"/>
</radialGradient>
<radialGradient id="paint6_radial_828_2185" cx="0" cy="0" r="1" gradientUnits="userSpaceOnUse" gradientTransform="translate(25.8988) rotate(90) scale(101.91 58.9418)">
<stop stop-color="#ED1E79" stop-opacity="0"/>
<stop offset="0.915253" stop-color="#F03F6B" stop-opacity="0"/>
<stop offset="1" stop-color="white"/>
</radialGradient>
<linearGradient id="paint7_linear_828_2185" x1="195.926" y1="197.265" x2="279.662" y2="208.202" gradientUnits="userSpaceOnUse">
<stop stop-color="#FBAE3C"/>
<stop offset="1" stop-color="#FD23CD"/>
</linearGradient>
<linearGradient id="paint8_linear_828_2185" x1="185.002" y1="220.536" x2="214.541" y2="210.586" gradientUnits="userSpaceOnUse">
<stop stop-color="#FF782C"/>
<stop offset="1" stop-color="#FF3EB2"/>
</linearGradient>
<radialGradient id="paint9_radial_828_2185" cx="0" cy="0" r="1" gradientUnits="userSpaceOnUse" gradientTransform="translate(23.5328 46.235) rotate(90) scale(54.1913 31.3868)">
<stop stop-color="#ED1E79" stop-opacity="0.1"/>
<stop offset="0.729167" stop-color="#F03F6B" stop-opacity="0"/>
<stop offset="1" stop-color="#FBB03B"/>
</radialGradient>
<radialGradient id="paint10_radial_828_2185" cx="0" cy="0" r="1" gradientUnits="userSpaceOnUse" gradientTransform="translate(23.5328) rotate(90) scale(92.4699 53.5572)">
<stop stop-color="#ED1E79" stop-opacity="0"/>
<stop offset="0.915253" stop-color="#F03F6B" stop-opacity="0"/>
<stop offset="1" stop-color="white"/>
</radialGradient>
<linearGradient id="paint11_linear_828_2185" x1="96.1096" y1="254.731" x2="38.6528" y2="203.95" gradientUnits="userSpaceOnUse">
<stop stop-color="#FBAE3C"/>
<stop offset="1" stop-color="#FD23CD"/>
</linearGradient>
<linearGradient id="paint12_linear_828_2185" x1="86.7139" y1="276.083" x2="75.8951" y2="249.957" gradientUnits="userSpaceOnUse">
<stop stop-color="#FF782C"/>
<stop offset="1" stop-color="#FF3EB2"/>
</linearGradient>
<radialGradient id="paint13_radial_828_2185" cx="0" cy="0" r="1" gradientUnits="userSpaceOnUse" gradientTransform="translate(45.1205 88.8369) rotate(90) scale(104.124 60.1792)">
<stop stop-color="#ED1E79" stop-opacity="0.1"/>
<stop offset="0.729167" stop-color="#F03F6B" stop-opacity="0"/>
<stop offset="1" stop-color="#FBB03B"/>
</radialGradient>
<radialGradient id="paint14_radial_828_2185" cx="0" cy="0" r="1" gradientUnits="userSpaceOnUse" gradientTransform="translate(45.1205) rotate(90) scale(177.674 102.688)">
<stop stop-color="#ED1E79" stop-opacity="0"/>
<stop offset="0.915253" stop-color="#F03F6B" stop-opacity="0"/>
<stop offset="1" stop-color="white"/>
</radialGradient>
<linearGradient id="paint15_linear_828_2185" x1="58.8926" y1="124.201" x2="193.314" y2="64.1213" gradientUnits="userSpaceOnUse">
<stop stop-color="#FBAE3C"/>
<stop offset="1" stop-color="#FD23CD"/>
</linearGradient>
<linearGradient id="paint16_linear_828_2185" x1="29.0369" y1="90.8107" x2="83.3433" y2="92.7035" gradientUnits="userSpaceOnUse">
<stop stop-color="#FF782C"/>
<stop offset="1" stop-color="#4BC9FF"/>
</linearGradient>
<linearGradient id="paint17_linear_828_2185" x1="201.72" y1="45.9113" x2="201.72" y2="119.137" gradientUnits="userSpaceOnUse">
<stop stop-color="white"/>
<stop offset="1" stop-color="#FFAD32"/>
</linearGradient>
</defs>
</svg>
