<svg width="27" height="28" viewBox="0 0 27 28" fill="none" xmlns="http://www.w3.org/2000/svg">
<path fill-rule="evenodd" clip-rule="evenodd" d="M21.7599 22.0464V6.06749H4.88488V22.0464H21.7599ZM2.33142 24.6715V25.7558C2.33142 26.4807 2.90303 27.0684 3.60815 27.0684C4.31327 27.0684 4.88488 26.4807 4.88488 25.7558V24.6715H21.7599H24.3134V22.0464V6.06749H25.3681C26.0732 6.06749 26.6448 5.47984 26.6448 4.75493C26.6448 4.03003 26.0732 3.44237 25.3681 3.44237H24.3134V2.24395C24.3134 1.51905 23.7418 0.931396 23.0367 0.931396C22.3316 0.931396 21.7599 1.51905 21.7599 2.24395V3.44237H4.88488H2.33142V6.06749V22.0464H1.27673C0.571612 22.0464 0 22.6341 0 23.359C0 24.0839 0.571612 24.6715 1.27673 24.6715H2.33142ZM5.66203 6.86643H14.6547V13.6004H5.66203V6.86643ZM20.9828 14.5135H11.9902V21.2475H20.9828V14.5135ZM15.4318 6.86643H20.9828V13.6004H15.4318V6.86643ZM11.213 14.5135H5.66203V21.2475H11.213V14.5135Z" fill="url(#paint0_linear_828_1477)"/>
<defs>
<linearGradient id="paint0_linear_828_1477" x1="13.3224" y1="0.931396" x2="13.3224" y2="27.0684" gradientUnits="userSpaceOnUse">
<stop stop-color="#ED1E79"/>
<stop offset="1" stop-color="#FBB03B"/>
</linearGradient>
</defs>
</svg>
